<svg width="80" height="70" viewBox="0 0 80 70" fill="none" xmlns="http://www.w3.org/2000/svg">
<g id="Cloud">
<g id="Union" filter="url(#filter0_bd_4_40)">
<mask id="path-1-outside-1_4_40" maskUnits="userSpaceOnUse" x="3" y="11.7201" width="62" height="39" fill="black">
<rect fill="white" x="3" y="11.7201" width="62" height="39"/>
<path fill-rule="evenodd" clip-rule="evenodd" d="M46.3621 29.5015C46.3621 30.0524 46.3338 30.5967 46.2787 31.133C47.979 29.6554 50.1996 28.7609 52.629 28.7609C57.9781 28.7609 62.3144 33.0971 62.3144 38.4462C62.3144 43.7953 57.9781 48.1315 52.629 48.1315C52.6261 48.1315 52.6232 48.1315 52.6203 48.1315H14.979C14.9761 48.1315 14.9731 48.1315 14.9702 48.1315C14.9673 48.1315 14.9643 48.1315 14.9614 48.1315H14.9132V48.1314C9.43305 48.1007 5 43.6487 5 38.1613C5 32.6941 9.40053 28.2547 14.8528 28.1918C15.5185 20.0887 22.3059 13.7201 30.5807 13.7201C39.2965 13.7201 46.3621 20.7857 46.3621 29.5015Z"/>
</mask>
<path fill-rule="evenodd" clip-rule="evenodd" d="M46.3621 29.5015C46.3621 30.0524 46.3338 30.5967 46.2787 31.133C47.979 29.6554 50.1996 28.7609 52.629 28.7609C57.9781 28.7609 62.3144 33.0971 62.3144 38.4462C62.3144 43.7953 57.9781 48.1315 52.629 48.1315C52.6261 48.1315 52.6232 48.1315 52.6203 48.1315H14.979C14.9761 48.1315 14.9731 48.1315 14.9702 48.1315C14.9673 48.1315 14.9643 48.1315 14.9614 48.1315H14.9132V48.1314C9.43305 48.1007 5 43.6487 5 38.1613C5 32.6941 9.40053 28.2547 14.8528 28.1918C15.5185 20.0887 22.3059 13.7201 30.5807 13.7201C39.2965 13.7201 46.3621 20.7857 46.3621 29.5015Z" fill="url(#paint0_linear_4_40)" shape-rendering="crispEdges"/>
<path d="M46.2787 31.133L44.2892 30.9287L43.7723 35.9611L47.5907 32.6426L46.2787 31.133ZM14.9132 48.1315H12.9132V50.1315H14.9132V48.1315ZM14.9132 48.1314H16.9132V46.1425L14.9244 46.1314L14.9132 48.1314ZM14.8528 28.1918L14.8759 30.1917L16.697 30.1707L16.8461 28.3556L14.8528 28.1918ZM48.2683 31.3374C48.3303 30.7333 48.3621 30.1208 48.3621 29.5015H44.3621C44.3621 29.984 44.3373 30.4601 44.2892 30.9287L48.2683 31.3374ZM52.629 26.7609C49.6993 26.7609 47.0171 27.8416 44.9668 29.6235L47.5907 32.6426C48.9409 31.4692 50.6998 30.7609 52.629 30.7609V26.7609ZM64.3144 38.4462C64.3144 31.9926 59.0827 26.7609 52.629 26.7609V30.7609C56.8735 30.7609 60.3144 34.2017 60.3144 38.4462H64.3144ZM52.629 50.1315C59.0827 50.1315 64.3144 44.8998 64.3144 38.4462H60.3144C60.3144 42.6907 56.8735 46.1315 52.629 46.1315V50.1315ZM52.6203 50.1315C52.621 50.1315 52.6218 50.1315 52.6234 50.1315C52.6247 50.1315 52.6268 50.1315 52.629 50.1315V46.1315C52.6284 46.1315 52.6276 46.1315 52.626 46.1315C52.6247 46.1315 52.6226 46.1315 52.6203 46.1315V50.1315ZM52.6203 46.1315H14.979V50.1315H52.6203V46.1315ZM14.9702 50.1315C14.9724 50.1315 14.9745 50.1315 14.9759 50.1315C14.9775 50.1315 14.9783 50.1315 14.979 50.1315V46.1315C14.9768 46.1315 14.9747 46.1315 14.9733 46.1315C14.9717 46.1315 14.9709 46.1315 14.9702 46.1315V50.1315ZM14.9614 50.1315C14.9621 50.1315 14.9629 50.1315 14.9645 50.1315C14.9658 50.1315 14.968 50.1315 14.9702 50.1315V46.1315C14.9695 46.1315 14.9687 46.1315 14.9671 46.1315C14.9657 46.1315 14.9636 46.1315 14.9614 46.1315V50.1315ZM14.9614 46.1315H14.9132V50.1315H14.9614V46.1315ZM16.9132 48.1315V48.1314H12.9132V48.1315H16.9132ZM3 38.1613C3 44.7495 8.3223 50.0945 14.902 50.1313L14.9244 46.1314C10.5438 46.1069 7 42.5479 7 38.1613H3ZM14.8298 26.192C8.28323 26.2675 3 31.5973 3 38.1613H7C7 33.791 10.5178 30.242 14.8759 30.1917L14.8298 26.192ZM30.5807 11.7201C21.2562 11.7201 13.6098 18.896 12.8596 28.0281L16.8461 28.3556C17.4273 21.2815 23.3555 15.7201 30.5807 15.7201V11.7201ZM48.3621 29.5015C48.3621 19.6811 40.4011 11.7201 30.5807 11.7201V15.7201C38.1919 15.7201 44.3621 21.8903 44.3621 29.5015H48.3621Z" fill="url(#paint1_linear_4_40)" mask="url(#path-1-outside-1_4_40)"/>
</g>
</g>
<defs>
<filter id="filter0_bd_4_40" x="-12" y="0.720123" width="91.3144" height="68.4114" filterUnits="userSpaceOnUse" color-interpolation-filters="sRGB">
<feFlood flood-opacity="0" result="BackgroundImageFix"/>
<feGaussianBlur in="BackgroundImageFix" stdDeviation="5"/>
<feComposite in2="SourceAlpha" operator="in" result="effect1_backgroundBlur_4_40"/>
<feColorMatrix in="SourceAlpha" type="matrix" values="0 0 0 0 0 0 0 0 0 0 0 0 0 0 0 0 0 0 127 0" result="hardAlpha"/>
<feOffset dy="4"/>
<feGaussianBlur stdDeviation="7.5"/>
<feComposite in2="hardAlpha" operator="out"/>
<feColorMatrix type="matrix" values="0 0 0 0 0 0 0 0 0 0 0 0 0 0 0 0 0 0 0.1 0"/>
<feBlend mode="normal" in2="effect1_backgroundBlur_4_40" result="effect2_dropShadow_4_40"/>
<feBlend mode="normal" in="SourceGraphic" in2="effect2_dropShadow_4_40" result="shape"/>
</filter>
<linearGradient id="paint0_linear_4_40" x1="22.8139" y1="13.5766" x2="36.6004" y2="48.275" gradientUnits="userSpaceOnUse">
<stop stop-color="white"/>
<stop offset="0.708333" stop-color="#9DDCFF" stop-opacity="0.69"/>
</linearGradient>
<linearGradient id="paint1_linear_4_40" x1="31.7983" y1="1.80394" x2="50.8515" y2="62.2164" gradientUnits="userSpaceOnUse">
<stop stop-color="white"/>
<stop offset="0.713542" stop-color="#85C6EC" stop-opacity="0.71"/>
</linearGradient>
</defs>
</svg>
