<svg width="42" height="42" viewBox="0 0 42 42" fill="none" xmlns="http://www.w3.org/2000/svg">
<circle cx="21.4198" cy="20.5802" r="13.5271" fill="url(#paint0_linear_4_39)" stroke="url(#paint1_linear_4_39)" stroke-width="2"/>
<path fill-rule="evenodd" clip-rule="evenodd" d="M21.4198 0C20.8021 0 20.3013 0.500764 20.3013 1.11849V4.69766C20.3013 5.31538 20.8021 5.81614 21.4198 5.81614C22.0375 5.81614 22.5383 5.31538 22.5383 4.69766V1.11849C22.5383 0.500765 22.0375 0 21.4198 0ZM21.4198 35.3443C20.8021 35.3443 20.3013 35.845 20.3013 36.4628V40.0419C20.3013 40.6596 20.8021 41.1604 21.4198 41.1604C22.0375 41.1604 22.5383 40.6596 22.5383 40.0419V36.4628C22.5383 35.845 22.0375 35.3443 21.4198 35.3443ZM30.182 3.16661C30.4909 2.63165 31.1749 2.44836 31.7099 2.75722C32.2449 3.06608 32.4282 3.75014 32.1193 4.2851L30.3297 7.38475C30.0208 7.91972 29.3368 8.10301 28.8018 7.79415C28.2669 7.48528 28.0836 6.80123 28.3924 6.26626L30.182 3.16661ZM14.0378 33.3663C13.5028 33.0574 12.8187 33.2407 12.5099 33.7756L10.7203 36.8753C10.4114 37.4103 10.5947 38.0943 11.1297 38.4032C11.6647 38.712 12.3487 38.5288 12.6576 37.9938L14.4472 34.8941C14.756 34.3592 14.5727 33.6751 14.0378 33.3663ZM37.7149 9.8807C38.2499 9.57184 38.9339 9.75513 39.2428 10.2901C39.5516 10.8251 39.3683 11.5091 38.8334 11.818L35.7337 13.6076C35.1988 13.9164 34.5147 13.7331 34.2058 13.1982C33.897 12.6632 34.0803 11.9791 34.6152 11.6703L37.7149 9.8807ZM8.63375 27.9622C8.32489 27.4273 7.64083 27.244 7.10587 27.5528L4.00622 29.3424C3.47125 29.6513 3.28796 30.3353 3.59682 30.8703C3.90569 31.4053 4.58974 31.5886 5.12471 31.2797L8.22436 29.4901C8.75932 29.1813 8.94262 28.4972 8.63375 27.9622ZM40.8815 19.4617C41.4992 19.4617 42 19.9625 42 20.5802C42 21.1979 41.4992 21.6987 40.8815 21.6987H37.3024C36.6846 21.6987 36.1839 21.1979 36.1839 20.5802C36.1839 19.9625 36.6846 19.4617 37.3024 19.4617H40.8815ZM6.65574 20.5802C6.65574 19.9625 6.15498 19.4617 5.53726 19.4617H1.95809C1.34036 19.4617 0.8396 19.9625 0.8396 20.5802C0.8396 21.1979 1.34036 21.6987 1.95809 21.6987H5.53726C6.15498 21.6987 6.65574 21.1979 6.65574 20.5802ZM38.8334 29.3424C39.3684 29.6513 39.5516 30.3353 39.2428 30.8703C38.9339 31.4053 38.2499 31.5886 37.7149 31.2797L34.6152 29.4901C34.0803 29.1812 33.897 28.4972 34.2059 27.9622C34.5147 27.4273 35.1988 27.244 35.7337 27.5528L38.8334 29.3424ZM8.63375 13.1982C8.94262 12.6632 8.75932 11.9791 8.22436 11.6703L5.12471 9.8807C4.58974 9.57184 3.90569 9.75513 3.59682 10.2901C3.28796 10.8251 3.47125 11.5091 4.00622 11.818L7.10587 13.6076C7.64083 13.9164 8.32489 13.7331 8.63375 13.1982ZM32.1193 36.8753C32.4282 37.4103 32.2449 38.0943 31.7099 38.4032C31.1749 38.712 30.4909 38.5287 30.182 37.9938L28.3924 34.8941C28.0836 34.3592 28.2669 33.6751 28.8018 33.3662C29.3368 33.0574 30.0208 33.2407 30.3297 33.7756L32.1193 36.8753ZM14.0378 7.79414C14.5727 7.48528 14.756 6.80122 14.4472 6.26625L12.6576 3.1666C12.3487 2.63164 11.6647 2.44835 11.1297 2.75721C10.5947 3.06607 10.4114 3.75013 10.7203 4.28509L12.5099 7.38474C12.8187 7.91971 13.5028 8.103 14.0378 7.79414Z" fill="url(#paint2_linear_4_39)"/>
<defs>
<linearGradient id="paint0_linear_4_39" x1="28.4663" y1="9.84271" x2="17.0963" y2="33.2051" gradientUnits="userSpaceOnUse">
<stop offset="0.182844" stop-color="#FFE600"/>
<stop offset="0.980542" stop-color="#F09000"/>
</linearGradient>
<linearGradient id="paint1_linear_4_39" x1="15.0209" y1="5.1883" x2="32.6611" y2="47.5593" gradientUnits="userSpaceOnUse">
<stop stop-color="#FFE600"/>
<stop offset="1" stop-color="#9C8D00"/>
</linearGradient>
<linearGradient id="paint2_linear_4_39" x1="36.5194" y1="5.36875" x2="5.98462" y2="41.1604" gradientUnits="userSpaceOnUse">
<stop stop-color="#FFE600"/>
<stop offset="1" stop-color="#AA9900"/>
</linearGradient>
</defs>
</svg>
